<svg viewBox="0 0 750 500" xmlns="http://www.w3.org/2000/svg"><rect fill="#5e8c39" height="500" rx="70.36" width="750"/><path d="m374.63 443.02-305.95-189.53 305.95-189.53 305.95 189.53z" fill="#e9d33e"/><ellipse cx="379.38" cy="253.49" fill="#1e3587" rx="130" ry="130.17"/><g fill="#fff"><path d="m272.32 225.05 3.04.31-2.09 2.24.65 2.99-2.77-1.3-2.65 1.55.39-3.05-2.29-2.04 3.01-.57 1.23-2.81z"/><path d="m415.24 204.54 3.05.3-2.1 2.24.66 3-2.78-1.31-2.64 1.55.38-3.04-2.29-2.04 3.01-.58 1.23-2.81z"/><path d="m263.94 287.74 1.43.08-1.04 1.15.24 1.46-1.28-.58-1.29.83.25-1.51-1.03-.95 1.43-.36.65-1.41z"/><path d="m295.19 269.24 1.43.08-1.04 1.15.24 1.46-1.28-.57-1.29.82.25-1.51-1.03-.95 1.43-.35.65-1.42z"/><path d="m375.7 263.08 2.01.11-1.46 1.61.33 2.05-1.79-.81-1.81 1.16.36-2.12-1.46-1.33 2.02-.5.9-1.98z"/><path d="m365.28 278.52 2.01.11-1.46 1.61.34 2.05-1.8-.81-1.8 1.15.35-2.11-1.45-1.34 2.01-.49.91-1.98z"/><path d="m388.75 277.4 2.01.12-1.46 1.61.34 2.05-1.8-.81-1.8 1.15.35-2.11-1.45-1.34 2.01-.49.91-1.98z"/><path d="m334.86 320.1 2.01.11-1.46 1.61.34 2.05-1.79-.81-1.81 1.15.35-2.11-1.45-1.33 2.01-.5.91-1.98z"/><path d="m374.08 288.53 1.34.07-.97 1.09.22 1.37-1.2-.55-1.21.78.23-1.42-.97-.89 1.35-.34.61-1.32z"/><path d="m403.66 313.84 1.81.1-1.32 1.45.31 1.85-1.62-.73-1.63 1.04.32-1.9-1.31-1.21 1.81-.45.82-1.78z"/><path d="m375.81 343.18 1.82.1-1.32 1.46.3 1.84-1.62-.73-1.62 1.04.31-1.9-1.31-1.21 1.82-.44.82-1.79z"/><path d="m423.17 315.65 1.82.1-1.32 1.45.31 1.85-1.62-.73-1.63 1.04.31-1.91-1.31-1.2 1.82-.45.82-1.78z"/><path d="m469.01 317.89 1.74.22-1.16 1.21.41 1.68-1.59-.76-1.49.82.18-1.69-1.34-1.17 1.71-.28.66-1.54z"/><path d="m472.07 308.33 1.74.22-1.16 1.21.41 1.68-1.6-.77-1.48.83.17-1.69-1.33-1.17 1.7-.28.67-1.55z"/><path d="m487.34 295.63 1.74.21-1.16 1.22.42 1.68-1.6-.77-1.48.82.17-1.68-1.33-1.17 1.7-.28.66-1.55z"/><path d="m447.62 344.86 1.74.21-1.16 1.22.42 1.68-1.6-.77-1.49.82.18-1.68-1.34-1.17 1.71-.28.66-1.55z"/><path d="m447.44 318.27 3.1.17-2.25 2.48.52 3.15-2.77-1.25-2.77 1.78.54-3.25-2.24-2.05 3.1-.77 1.4-3.05z"/><path d="m446.89 333.28 3.09.18-2.24 2.48.51 3.15-2.76-1.25-2.78 1.78.54-3.25-2.23-2.06 3.09-.76 1.4-3.05z"/><path d="m459.61 320.2 3.01.31-2.06 2.19.65 2.96-2.74-1.29-2.6 1.51.37-2.99-2.27-2.01 2.97-.57 1.21-2.76z"/><path d="m329.14 249.69 2.8.16-2.03 2.25.46 2.85-2.5-1.13-2.51 1.61.49-2.95-2.03-1.86 2.81-.69 1.26-2.76z"/><path d="m472.08 296.8 3.05.3-2.09 2.24.65 2.99-2.77-1.3-2.65 1.55.38-3.04-2.28-2.04 3-.58 1.24-2.81z"/><path d="m309.29 288.33 3.05.3-2.09 2.24.65 3-2.78-1.31-2.64 1.55.38-3.04-2.29-2.04 3.01-.58 1.23-2.81z"/><path d="m304.91 305.27 3.05.3-2.1 2.24.65 2.99-2.77-1.3-2.64 1.55.38-3.04-2.29-2.04 3.01-.58 1.23-2.81z"/><path d="m283.18 275.78 3.05.3-2.09 2.24.65 3-2.77-1.3-2.65 1.54.39-3.04-2.29-2.04 3.01-.58 1.23-2.81z"/><path d="m380.72 301.03 3.05.31-2.1 2.23.65 3-2.77-1.3-2.64 1.54.38-3.04-2.29-2.04 3.01-.58 1.23-2.81z"/><path d="m415.24 336.83 3.05.3-2.1 2.24.66 2.99-2.78-1.3-2.64 1.55.38-3.04-2.29-2.04 3.01-.58 1.23-2.81z"/><path d="m396 207.15c-45.16-17.26-90.1-23.73-128.19-20.48-4.63 7.73-8.46 16-11.42 24.67 38.45-6.51 85.39-1.6 132.33 16.34 47.38 18.11 85.92 46.14 110.22 76.99 3.47-8.11 6.13-16.64 7.9-25.5-26.29-28.53-64.74-54.39-110.84-72.02z"/></g><g fill="#5e8c39"><path d="m287.77 191.45c2.2-.04 4.11.72 5.72 2.29s2.44 3.5 2.48 5.79c.04 2.27-.71 4.21-2.24 5.82-1.53 1.6-3.42 2.42-5.65 2.47-2.34.04-4.29-.73-5.87-2.32s-2.38-3.49-2.42-5.72c-.03-1.49.31-2.87 1-4.13.7-1.26 1.67-2.27 2.91-3.02 1.25-.75 2.6-1.14 4.05-1.17zm.02 2.9c-1.44.03-2.64.55-3.6 1.57s-1.43 2.3-1.4 3.85c.03 1.72.67 3.07 1.93 4.05.97.77 2.08 1.14 3.33 1.12 1.4-.03 2.59-.56 3.56-1.59s1.44-2.3 1.41-3.79c-.03-1.48-.55-2.73-1.56-3.74s-2.23-1.5-3.66-1.47z"/><path d="m300.53 191.91 3.13.16c1.72.09 2.93.3 3.64.65.71.34 1.27.88 1.68 1.62.41.73.59 1.59.54 2.56-.05 1.02-.34 1.87-.86 2.53s-1.29 1.15-2.29 1.45l3.33 7.11-3.23-.16-3.16-6.77h-.27s-.33 6.58-.33 6.58l-2.96-.15.78-15.56zm2.65 6.23.93.05c.94.05 1.6-.04 1.96-.27.37-.23.56-.63.59-1.2.02-.34-.06-.64-.22-.9s-.39-.45-.68-.58-.83-.21-1.61-.25l-.81-.04-.16 3.2z"/><path d="m314.41 192.72 3.49.38c2.25.24 3.89.7 4.92 1.38s1.83 1.68 2.41 3.01c.57 1.33.77 2.84.59 4.52-.13 1.19-.45 2.27-.95 3.23s-1.14 1.73-1.91 2.31-1.57.96-2.41 1.12-2.26.14-4.26-.08l-3.54-.38 1.68-15.49zm2.62 3.16-1.06 9.77 1.37.15c1.35.15 2.34.1 2.98-.15.64-.24 1.19-.71 1.66-1.4.46-.69.75-1.57.87-2.64.18-1.64-.14-2.97-.96-3.98-.74-.9-2.02-1.46-3.85-1.65l-1-.11z"/><path d="m330.95 194.7 8.39 1.35-.46 2.87-5.48-.89-.45 2.78 5.48.89-.45 2.81-5.48-.89-.65 4.05 5.48.89-.46 2.88-8.39-1.35 2.48-15.38z"/><path d="m345.01 197.09 2.82.62 1.19 11.39 5.89-9.83 2.82.62-.8 15.78-2.8-.62.49-9.97-5.34 8.9-2.55-.56-1.08-10.32-3.78 9.24-2.82-.62 5.98-14.64z"/><path d="m368.5 209.02 5.01 1.48-.51 1.71-3.28-.97-.49 1.66 3.28.97-.5 1.68-3.28-.97-.71 2.42 3.28.97-.51 1.72-5.01-1.48 2.72-9.2z"/><path d="m385.22 207.99 2.96 1.06c1.6.57 2.7 1.13 3.3 1.68s.99 1.23 1.16 2.03c.17.81.09 1.67-.24 2.6-.37 1.02-.94 1.78-1.71 2.27-.78.49-1.67.7-2.68.64-.59-.04-1.6-.31-3.02-.82l-2.22 6.22-2.79-1 5.23-14.68zm.75 6.73.89.32c.7.25 1.2.37 1.51.37s.58-.09.82-.27c.24-.17.42-.43.53-.75.2-.57.13-1.06-.22-1.48-.25-.31-.81-.61-1.67-.92l-.79-.28z"/><path d="m398.07 212.69 2.91 1.18c1.59.65 2.67 1.25 3.23 1.81s.91 1.25 1.06 2.08c.14.83.03 1.69-.33 2.6-.38.95-.93 1.65-1.64 2.1s-1.59.66-2.64.62l.82 7.81-3-1.22-.77-7.43-.25-.1-2.47 6.12-2.75-1.11 5.84-14.44zm.46 6.76.86.35c.87.35 1.52.48 1.94.39.42-.1.74-.41.96-.94.13-.32.16-.62.09-.92s-.22-.56-.45-.77-.71-.47-1.44-.76l-.75-.31-1.2 2.97z"/><path d="m417.72 220.71c1.99.93 3.37 2.46 4.13 4.58s.65 4.22-.32 6.3c-.96 2.06-2.48 3.47-4.57 4.24-2.08.76-4.13.67-6.15-.27-2.12-.99-3.53-2.55-4.25-4.67s-.6-4.19.34-6.2c.63-1.35 1.54-2.44 2.72-3.27s2.5-1.3 3.95-1.43 2.83.12 4.15.73zm-1.26 2.62c-1.3-.61-2.61-.67-3.93-.18-1.31.49-2.3 1.44-2.95 2.84-.73 1.56-.75 3.06-.05 4.49.54 1.12 1.37 1.94 2.5 2.47 1.27.6 2.57.64 3.9.14s2.3-1.43 2.93-2.78c.63-1.34.71-2.69.24-4.04s-1.35-2.33-2.64-2.94z"/><path d="m440.14 235.63-2.82.81c-.49-1.86-1.5-3.21-3.04-4.06-1.34-.74-2.71-.91-4.11-.51-1.4.39-2.44 1.23-3.14 2.51-.72 1.32-.86 2.69-.42 4.13.44 1.43 1.35 2.53 2.73 3.28.9.49 1.76.72 2.58.68s1.64-.36 2.46-.96l-3.95-2.17 1.34-2.44 6.87 3.77-.3.59c-.65 1.2-1.58 2.16-2.79 2.89-1.2.73-2.45 1.11-3.75 1.13-1.29.02-2.6-.33-3.92-1.05-1.42-.78-2.51-1.78-3.28-3-.77-1.23-1.17-2.59-1.19-4.08s.33-2.9 1.05-4.22c.99-1.81 2.45-3.05 4.37-3.74 2.29-.81 4.57-.6 6.84.65 1.19.65 2.18 1.48 2.97 2.49.67.85 1.17 1.96 1.51 3.32z"/><path d="m446.12 236.28 2.66 1.66c1.46.91 2.42 1.69 2.87 2.34.46.65.68 1.39.68 2.23s-.26 1.67-.77 2.5c-.54.87-1.2 1.47-1.98 1.79s-1.68.38-2.71.15l-.53 7.83-2.75-1.72.52-7.45-.23-.14-3.49 5.6-2.51-1.57zm-.71 6.74.79.49c.8.5 1.42.74 1.85.72s.8-.28 1.1-.76c.18-.29.26-.59.24-.89-.02-.31-.12-.58-.31-.83s-.62-.58-1.29-1l-.69-.43-1.69 2.71z"/><path d="m457.74 243.69 6.99 4.83-1.65 2.39-4.57-3.16-1.6 2.32 4.57 3.16-1.62 2.34-4.57-3.16-2.33 3.37 4.57 3.16-1.65 2.4-6.99-4.83 8.84-12.82z"/><path d="m473.35 257.64-2.92.21c.04-1.32-.26-2.22-.9-2.71-.31-.24-.63-.35-.95-.33s-.56.13-.72.34-.24.46-.24.75c0 .39.18 1.36.52 2.91.33 1.44.51 2.33.55 2.67.11.85.1 1.57-.04 2.16s-.4 1.15-.8 1.67c-.77 1.02-1.76 1.59-2.97 1.72s-2.37-.24-3.5-1.1c-.88-.67-1.49-1.47-1.81-2.41-.33-.93-.37-2.04-.13-3.32l2.89.31c-.24 1.55.03 2.62.81 3.21.4.31.83.45 1.29.42s.8-.19 1.04-.5c.21-.28.32-.64.33-1.08 0-.44-.13-1.22-.39-2.34-.51-2.13-.74-3.64-.68-4.54s.32-1.64.77-2.24c.65-.86 1.54-1.35 2.66-1.46 1.12-.12 2.16.19 3.13.92.62.47 1.1 1.06 1.44 1.78.34.71.55 1.7.63 2.95z"/><path d="m483.04 265.68-2.93.07c.1-1.32-.15-2.23-.77-2.75-.3-.25-.61-.38-.93-.38s-.57.1-.74.3-.26.45-.27.74c-.02.39.11 1.37.38 2.93.26 1.45.4 2.35.42 2.69.07.85.02 1.57-.14 2.16s-.46 1.13-.88 1.63c-.82.98-1.84 1.5-3.05 1.57s-2.36-.35-3.45-1.27c-.85-.71-1.41-1.55-1.69-2.49-.28-.95-.27-2.05.03-3.32l2.87.45c-.31 1.54-.09 2.62.65 3.25.39.33.81.49 1.27.49s.81-.15 1.06-.45c.23-.27.35-.62.38-1.06s-.07-1.22-.28-2.35c-.41-2.15-.56-3.68-.45-4.57s.4-1.63.88-2.2c.69-.83 1.61-1.27 2.73-1.33 1.13-.06 2.15.3 3.08 1.08.59.5 1.04 1.12 1.35 1.84.31.73.47 1.72.48 2.98z"/><path d="m493.59 272c1.59 1.53 2.4 3.42 2.43 5.67.04 2.25-.74 4.2-2.33 5.85-1.58 1.64-3.47 2.48-5.69 2.53s-4.13-.7-5.73-2.25c-1.68-1.62-2.52-3.55-2.51-5.79 0-2.24.78-4.16 2.32-5.76 1.03-1.07 2.24-1.81 3.63-2.21 1.38-.4 2.78-.43 4.2-.08 1.41.35 2.64 1.03 3.69 2.04zm-2.03 2.07c-1.04-1-2.26-1.48-3.66-1.44s-2.64.62-3.71 1.73c-1.19 1.24-1.69 2.65-1.5 4.23.15 1.23.67 2.28 1.56 3.14 1.01.98 2.23 1.44 3.64 1.4 1.42-.05 2.64-.61 3.67-1.68s1.54-2.32 1.53-3.75c0-1.43-.52-2.64-1.55-3.63z"/></g></svg>